{
  "accessors": [
    {
      "bufferView": 2,
      "componentType": 5126,
      "count": 409,
      "max": [
        -0.06344349682331085,
        0.06259720027446747,
        0.14674000442028046
      ],
      "min": [
        -0.12445200234651566,
        -0.015198799781501293,
        0.085732102394104
      ],
      "type": "VEC3"
    },
    {
      "bufferView": 2,
      "byteOffset": 4908,
      "componentType": 5126,
      "count": 409,
      "max": [
        0.7071157693862915,
        1.0,
        0.9983789920806885
      ],
      "min": [
        -0.9983788728713989,
        -1.0,
        -0.7071153521537781
      ],
      "type": "VEC3"
    },
    {
      "bufferView": 3,
      "componentType": 5126,
      "count": 409,
      "max": [
        0.842824399471283,
        0.9991528391838074,
        0.8428242206573486,
        1.0
      ],
      "min": [
        -0.9993846416473389,
        -0.9992111921310425,
        -0.9994859099388123,
        1.0
      ],
      "type": "VEC4"
    },
    {
      "bufferView": 1,
      "componentType": 5126,
      "count": 409,
      "max": [
        0.9980000257492065,
        0.5946040153503418
      ],
      "min": [
        0.0020000000949949026,
        0.0020000000949949026
      ],
      "type": "VEC2"
    },
    {
      "bufferView": 0,
      "componentType": 5125,
      "count": 2088,
      "type": "SCALAR"
    },
    {
      "bufferView": 2,
      "byteOffset": 9816,
      "componentType": 5126,
      "count": 16,
      "max": [
        1.0,
        -0.43554601073265076,
        1.0
      ],
      "min": [
        -1.0,
        -0.43554601073265076,
        -1.0
      ],
      "type": "VEC3"
    },
    {
      "bufferView": 2,
      "byteOffset": 10008,
      "componentType": 5126,
      "count": 16,
      "max": [
        0.0,
        1.0,
        6.123230292458899e-17
      ],
      "min": [
        0.0,
        1.0,
        6.123230292458899e-17
      ],
      "type": "VEC3"
    },
    {
      "bufferView": 3,
      "byteOffset": 6544,
      "componentType": 5126,
      "count": 16,
      "max": [
        1.0,
        8.143985920206485e-22,
        9.463530659559183e-06,
        1.0
      ],
      "min": [
        1.0,
        -5.794738454490118e-22,
        -1.3300145838002209e-05,
        1.0
      ],
      "type": "VEC4"
    },
    {
      "bufferView": 1,
      "byteOffset": 3272,
      "componentType": 5126,
      "count": 16,
      "max": [
        1.0,
        1.0
      ],
      "min": [
        0.0,
        0.0
      ],
      "type": "VEC2"
    },
    {
      "bufferView": 0,
      "byteOffset": 8352,
      "componentType": 5125,
      "count": 42,
      "type": "SCALAR"
    },
    {
      "bufferView": 2,
      "byteOffset": 10200,
      "componentType": 5126,
      "count": 852,
      "max": [
        0.2304379940032959,
        -0.11758600175380707,
        0.24635200202465057
      ],
      "min": [
        -0.2240860015153885,
        -0.43507900834083557,
        -0.2081499993801117
      ],
      "type": "VEC3"
    },
    {
      "bufferView": 2,
      "byteOffset": 20424,
      "componentType": 5126,
      "count": 852,
      "max": [
        0.9999967813491821,
        0.9359861016273499,
        0.9999966621398926
      ],
      "min": [
        -0.9999967813491821,
        -1.0,
        -0.9999966621398926
      ],
      "type": "VEC3"
    },
    {
      "bufferView": 3,
      "byteOffset": 6800,
      "componentType": 5126,
      "count": 852,
      "max": [
        0.9999969005584717,
        0.8305371999740601,
        0.9999967813491821,
        1.0
      ],
      "min": [
        -0.9999968409538269,
        -0.91817307472229,
        -0.9999967813491821,
        1.0
      ],
      "type": "VEC4"
    },
    {
      "bufferView": 1,
      "byteOffset": 3400,
      "componentType": 5126,
      "count": 852,
      "max": [
        0.6822299957275391,
        0.9980000257492065
      ],
      "min": [
        0.0020000000949949026,
        0.0020000000949949026
      ],
      "type": "VEC2"
    },
    {
      "bufferView": 0,
      "byteOffset": 8520,
      "componentType": 5125,
      "count": 4512,
      "type": "SCALAR"
    },
    {
      "bufferView": 2,
      "byteOffset": 30648,
      "componentType": 5126,
      "count": 1080,
      "max": [
        0.1478009968996048,
        0.08505889773368835,
        0.16373799741268158
      ],
      "min": [
        -0.1414490044116974,
        -0.36425501108169556,
        -0.1255130022764206
      ],
      "type": "VEC3"
    },
    {
      "bufferView": 2,
      "byteOffset": 43608,
      "componentType": 5126,
      "count": 1080,
      "max": [
        0.9999576210975647,
        0.997568666934967,
        0.9999576210975647
      ],
      "min": [
        -0.9999575018882751,
        -1.0,
        -0.9999576210975647
      ],
      "type": "VEC3"
    },
    {
      "bufferView": 3,
      "byteOffset": 20432,
      "componentType": 5126,
      "count": 1080,
      "max": [
        0.9999995231628418,
        0.7094106078147888,
        0.9999996423721313,
        1.0
      ],
      "min": [
        -0.9999832510948181,
        -0.6987078785896301,
        -0.999998927116394,
        1.0
      ],
      "type": "VEC4"
    },
    {
      "bufferView": 1,
      "byteOffset": 10216,
      "componentType": 5126,
      "count": 1080,
      "max": [
        0.9948170185089111,
        0.7300220131874084
      ],
      "min": [
        0.014516700059175491,
        0.014918399974703789
      ],
      "type": "VEC2"
    },
    {
      "bufferView": 0,
      "byteOffset": 26568,
      "componentType": 5125,
      "count": 4404,
      "type": "SCALAR"
    },
    {
      "bufferView": 2,
      "byteOffset": 56568,
      "componentType": 5126,
      "count": 828,
      "max": [
        0.14392100274562836,
        0.43554601073265076,
        0.15985700488090515
      ],
      "min": [
        -0.13756899535655975,
        0.08505869656801224,
        -0.12163200229406357
      ],
      "type": "VEC3"
    },
    {
      "bufferView": 2,
      "byteOffset": 66504,
      "componentType": 5126,
      "count": 828,
      "max": [
        0.9986331462860107,
        1.0,
        0.9986331462860107
      ],
      "min": [
        -0.9986331462860107,
        -0.6677220463752747,
        -0.9986331462860107
      ],
      "type": "VEC3"
    },
    {
      "bufferView": 3,
      "byteOffset": 37712,
      "componentType": 5126,
      "count": 828,
      "max": [
        0.9997185468673706,
        0.8672422170639038,
        0.9982573986053467,
        1.0
      ],
      "min": [
        -0.9992233514785767,
        -0.8678364157676697,
        -0.9988422393798828,
        -1.0
      ],
      "type": "VEC4"
    },
    {
      "bufferView": 1,
      "byteOffset": 18856,
      "componentType": 5126,
      "count": 828,
      "max": [
        0.9348549842834473,
        0.973846971988678
      ],
      "min": [
        0.030614299699664116,
        0.599494993686676
      ],
      "type": "VEC2"
    },
    {
      "bufferView": 0,
      "byteOffset": 44184,
      "componentType": 5125,
      "count": 4512,
      "type": "SCALAR"
    }
  ],
  "asset": {
    "extras": {
      "author": "pablosanco (https://sketchfab.com/pablosanco)",
      "license": "CC-BY-4.0 (http://creativecommons.org/licenses/by/4.0/)",
      "source": "https://sketchfab.com/3d-models/cohete-rocket-69b47e5e4a874a4a9c96b79faed66767",
      "title": "Cohete Rocket"
    },
    "generator": "Sketchfab-12.66.0",
    "version": "2.0"
  },
  "bufferViews": [
    {
      "buffer": 0,
      "byteLength": 62232,
      "name": "floatBufferViews",
      "target": 34963
    },
    {
      "buffer": 0,
      "byteLength": 25480,
      "byteOffset": 62232,
      "byteStride": 8,
      "name": "floatBufferViews",
      "target": 34962
    },
    {
      "buffer": 0,
      "byteLength": 76440,
      "byteOffset": 87712,
      "byteStride": 12,
      "name": "floatBufferViews",
      "target": 34962
    },
    {
      "buffer": 0,
      "byteLength": 50960,
      "byteOffset": 164152,
      "byteStride": 16,
      "name": "floatBufferViews",
      "target": 34962
    }
  ],
  "buffers": [
    {
      "byteLength": 215112,
      "uri": "scene.bin"
    }
  ],
  "images": [
    {
      "uri": "textures/material_baseColor.jpeg"
    },
    {
      "uri": "textures/material_metallicRoughness.png"
    },
    {
      "uri": "textures/material_normal.png"
    },
    {
      "uri": "textures/CUERPO_baseColor.jpeg"
    },
    {
      "uri": "textures/CUERPO_metallicRoughness.png"
    },
    {
      "uri": "textures/CUERPO_normal.png"
    },
    {
      "uri": "textures/ALERONES_baseColor.jpeg"
    },
    {
      "uri": "textures/ALERONES_metallicRoughness.png"
    },
    {
      "uri": "textures/ALERONES_normal.png"
    },
    {
      "uri": "textures/PISO_baseColor.png"
    },
    {
      "uri": "textures/PISO_metallicRoughness.png"
    },
    {
      "uri": "textures/PISO_normal.png"
    },
    {
      "uri": "textures/VENTANA_baseColor.jpeg"
    },
    {
      "uri": "textures/VENTANA_metallicRoughness.png"
    },
    {
      "uri": "textures/VENTANA_normal.png"
    }
  ],
  "materials": [
    {
      "doubleSided": true,
      "name": "material",
      "normalTexture": {
        "index": 2
      },
      "occlusionTexture": {
        "index": 1
      },
      "pbrMetallicRoughness": {
        "baseColorTexture": {
          "index": 0
        },
        "metallicRoughnessTexture": {
          "index": 1
        }
      }
    },
    {
      "doubleSided": true,
      "name": "CUERPO",
      "normalTexture": {
        "index": 5
      },
      "occlusionTexture": {
        "index": 4
      },
      "pbrMetallicRoughness": {
        "baseColorTexture": {
          "index": 3
        },
        "metallicRoughnessTexture": {
          "index": 4
        }
      }
    },
    {
      "doubleSided": true,
      "name": "ALERONES",
      "normalTexture": {
        "index": 8
      },
      "occlusionTexture": {
        "index": 7
      },
      "pbrMetallicRoughness": {
        "baseColorTexture": {
          "index": 6
        },
        "metallicRoughnessTexture": {
          "index": 7
        }
      }
    },
    {
      "alphaMode": "BLEND",
      "doubleSided": true,
      "name": "PISO",
      "normalTexture": {
        "index": 11
      },
      "occlusionTexture": {
        "index": 10
      },
      "pbrMetallicRoughness": {
        "baseColorTexture": {
          "index": 9
        },
        "metallicRoughnessTexture": {
          "index": 10
        }
      }
    },
    {
      "doubleSided": true,
      "name": "VENTANA",
      "normalTexture": {
        "index": 14
      },
      "occlusionTexture": {
        "index": 13
      },
      "pbrMetallicRoughness": {
        "baseColorTexture": {
          "index": 12
        },
        "metallicRoughnessTexture": {
          "index": 13
        }
      }
    }
  ],
  "meshes": [
    {
      "name": "defaultMaterial",
      "primitives": [
        {
          "attributes": {
            "NORMAL": 1,
            "POSITION": 0,
            "TANGENT": 2,
            "TEXCOORD_0": 3
          },
          "indices": 4,
          "material": 4,
          "mode": 4
        }
      ]
    },
    {
      "name": "defaultMaterial",
      "primitives": [
        {
          "attributes": {
            "NORMAL": 6,
            "POSITION": 5,
            "TANGENT": 7,
            "TEXCOORD_0": 8
          },
          "indices": 9,
          "material": 3,
          "mode": 4
        }
      ]
    },
    {
      "name": "defaultMaterial",
      "primitives": [
        {
          "attributes": {
            "NORMAL": 11,
            "POSITION": 10,
            "TANGENT": 12,
            "TEXCOORD_0": 13
          },
          "indices": 14,
          "material": 2,
          "mode": 4
        }
      ]
    },
    {
      "name": "defaultMaterial",
      "primitives": [
        {
          "attributes": {
            "NORMAL": 16,
            "POSITION": 15,
            "TANGENT": 17,
            "TEXCOORD_0": 18
          },
          "indices": 19,
          "material": 1,
          "mode": 4
        }
      ]
    },
    {
      "name": "defaultMaterial",
      "primitives": [
        {
          "attributes": {
            "NORMAL": 21,
            "POSITION": 20,
            "TANGENT": 22,
            "TEXCOORD_0": 23
          },
          "indices": 24,
          "material": 0,
          "mode": 4
        }
      ]
    }
  ],
  "nodes": [
    {
      "children": [
        1
      ],
      "matrix": [
        1.0,
        0.0,
        0.0,
        0.0,
        0.0,
        2.220446049250313e-16,
        -1.0,
        0.0,
        0.0,
        1.0,
        2.220446049250313e-16,
        0.0,
        0.0,
        0.0,
        0.0,
        1.0
      ],
      "name": "Sketchfab_model"
    },
    {
      "children": [
        2,
        4,
        6,
        8,
        10
      ],
      "matrix": [
        1.0,
        0.0,
        0.0,
        0.0,
        0.0,
        -4.371139006309477e-08,
        0.999999999999999,
        0.0,
        0.0,
        -0.999999999999999,
        -4.371139006309477e-08,
        0.0,
        0.0,
        0.0,
        0.0,
        1.0
      ],
      "name": "Collada visual scene group"
    },
    {
      "children": [
        3
      ],
      "name": "VENTANA"
    },
    {
      "mesh": 0,
      "name": "defaultMaterial"
    },
    {
      "children": [
        5
      ],
      "name": "PISO"
    },
    {
      "mesh": 1,
      "name": "defaultMaterial"
    },
    {
      "children": [
        7
      ],
      "name": "ALERONES"
    },
    {
      "mesh": 2,
      "name": "defaultMaterial"
    },
    {
      "children": [
        9
      ],
      "name": "CUERPO"
    },
    {
      "mesh": 3,
      "name": "defaultMaterial"
    },
    {
      "children": [
        11
      ],
      "name": "CUERPO"
    },
    {
      "mesh": 4,
      "name": "defaultMaterial"
    }
  ],
  "samplers": [
    {
      "magFilter": 9729,
      "minFilter": 9987,
      "wrapS": 10497,
      "wrapT": 10497
    }
  ],
  "scene": 0,
  "scenes": [
    {
      "name": "Sketchfab_Scene",
      "nodes": [
        0
      ]
    }
  ],
  "textures": [
    {
      "sampler": 0,
      "source": 0
    },
    {
      "sampler": 0,
      "source": 1
    },
    {
      "sampler": 0,
      "source": 2
    },
    {
      "sampler": 0,
      "source": 3
    },
    {
      "sampler": 0,
      "source": 4
    },
    {
      "sampler": 0,
      "source": 5
    },
    {
      "sampler": 0,
      "source": 6
    },
    {
      "sampler": 0,
      "source": 7
    },
    {
      "sampler": 0,
      "source": 8
    },
    {
      "sampler": 0,
      "source": 9
    },
    {
      "sampler": 0,
      "source": 10
    },
    {
      "sampler": 0,
      "source": 11
    },
    {
      "sampler": 0,
      "source": 12
    },
    {
      "sampler": 0,
      "source": 13
    },
    {
      "sampler": 0,
      "source": 14
    }
  ]
}
